<?xml version="1.0" encoding="UTF-8"?>
<svg version="1.1" xmlns="http://www.w3.org/2000/svg" width="500" height="500">
<path d="M0 0 C1.32 0 2.64 0 4 0 C4.64707063 44.13021725 4.64707063 44.13021725 1 60 C0.83371094 60.72654785 0.66742188 61.4530957 0.49609375 62.20166016 C-3.21646651 77.63972323 -9.97878911 92.3434908 -18 106 C-18.46535156 106.80566406 -18.93070312 107.61132812 -19.41015625 108.44140625 C-21.88474213 112.58976451 -21.88474213 112.58976451 -23 114 C-23.66 114 -24.32 114 -25 114 C-25.21398437 114.68449219 -25.42796875 115.36898437 -25.6484375 116.07421875 C-27.41141274 119.89060157 -29.85875386 122.67742104 -32.625 125.8125 C-33.16624512 126.4327002 -33.70749023 127.05290039 -34.26513672 127.69189453 C-41.17594234 135.5526532 -48.37982904 142.9754939 -57 149 C-57.66 149 -58.32 149 -59 149 C-59 149.66 -59 150.32 -59 151 C-60.67724609 152.24926758 -60.67724609 152.24926758 -63.0234375 153.64453125 C-63.88066406 154.15693359 -64.73789062 154.66933594 -65.62109375 155.19726562 C-66.52988281 155.73029297 -67.43867188 156.26332031 -68.375 156.8125 C-69.24511719 157.33392578 -70.11523438 157.85535156 -71.01171875 158.39257812 C-79.76078977 163.5836936 -88.62949084 168.12140487 -98.1875 171.625 C-99.00412109 171.92494873 -99.82074219 172.22489746 -100.66210938 172.53393555 C-108.01292118 175.15011983 -115.29764581 176.73531261 -123 178 C-123.76425293 178.16556396 -124.52850586 178.33112793 -125.31591797 178.50170898 C-133.55743931 180.22068126 -141.73857402 180.44111755 -150.125 180.4375 C-150.86888977 180.43823517 -151.61277954 180.43897034 -152.37921143 180.43972778 C-186.92217573 180.35062575 -220.27663987 169.05017491 -247 147 C-247.66 146.67 -248.32 146.34 -249 146 C-249 145.34 -249 144.68 -249 144 C-249.721875 143.773125 -250.44375 143.54625 -251.1875 143.3125 C-254.56432417 141.73664872 -256.55767039 139.79123384 -259 137 C-259 136.34 -259 135.68 -259 135 C-259.639375 134.731875 -260.27875 134.46375 -260.9375 134.1875 C-263 133 -263 133 -264 130 C-264.66 130 -265.32 130 -266 130 C-283.65733522 111.69573655 -301.1648984 82.88814962 -302 57 C-298.55866877 57.67226005 -295.93285665 59.05990259 -292.875 60.75 C-286.81333848 63.88947612 -280.71240141 65.62109255 -274.05615234 67.08691406 C-268.45984302 68.4364477 -268.45984302 68.4364477 -266.1640625 71.25 C-265.77992188 72.1575 -265.39578125 73.065 -265 74 C-264.51402344 75.00933594 -264.02804687 76.01867187 -263.52734375 77.05859375 C-263.00269531 78.17363281 -262.47804688 79.28867187 -261.9375 80.4375 C-256.88449507 90.81163978 -250.09647982 100.15580479 -242.1796875 108.546875 C-241 110 -241 110 -241 112 C-240.360625 112.268125 -239.72125 112.53625 -239.0625 112.8125 C-237 114 -237 114 -236 117 C-234.6881404 117.70798772 -233.34913859 118.36592801 -232 119 C-230.16762691 120.3484028 -228.35738506 121.72708409 -226.5625 123.125 C-214.59630492 132.25304718 -202.09000202 139.28997492 -187.6875 143.6875 C-187.0368457 143.89012451 -186.38619141 144.09274902 -185.71582031 144.30151367 C-174.10776578 147.67009802 -162.21200032 148.36689544 -150.1875 148.3125 C-148.87378418 148.30686035 -147.56006836 148.3012207 -146.20654297 148.29541016 C-130.35592498 148.09764457 -116.52236768 145.34437673 -102 139 C-101.3414502 138.71527832 -100.68290039 138.43055664 -100.00439453 138.13720703 C-89.49085702 133.49503243 -80.60069141 127.40120476 -71.66894531 120.20166016 C-70 119 -70 119 -67.85058594 117.95458984 C-65.42994606 116.70594843 -65.17860275 115.42653507 -64 113 C-61.5 110.25 -61.5 110.25 -59 108 C-58.34 108 -57.68 108 -57 108 C-56.74476563 107.26652344 -56.48953125 106.53304687 -56.2265625 105.77734375 C-54.93482311 102.85241793 -53.46703494 100.96708997 -51.375 98.5625 C-40.62536529 85.39809228 -34.16446475 69.82184092 -30.15234375 53.4140625 C-28.63657895 48.92328815 -26.3859415 45.0800213 -24 41 C-23.0079393 39.25848148 -22.01708848 37.51627328 -21.02734375 35.7734375 C-19.99795337 33.97363933 -18.96800035 32.17416287 -17.9375 30.375 C-17.42123047 29.47265625 -16.90496094 28.5703125 -16.37304688 27.640625 C-15.36898762 25.88575965 -14.36468376 24.13103424 -13.36010742 22.37646484 C-12.19179025 20.33510793 -11.02519038 18.2927861 -9.859375 16.25 C-8.0204442 13.0357344 -6.17187518 9.82748133 -4.3125 6.625 C-3.40951172 5.06652344 -3.40951172 5.06652344 -2.48828125 3.4765625 C-1 1 -1 1 0 0 Z " fill="#AEC17B" transform="translate(387,242)"/>
<path d="M0 0 C0 0.66 0 1.32 0 2 C0.86044922 2.39058594 0.86044922 2.39058594 1.73828125 2.7890625 C4.1744207 4.09338587 6.09306786 5.57528158 8.1875 7.375 C8.88230469 7.96023437 9.57710937 8.54546875 10.29296875 9.1484375 C12.12401235 11.13451225 12.61074192 12.36234076 13 15 C11.96875 14.54625 10.9375 14.0925 9.875 13.625 C8.58377763 13.08227506 7.29212127 12.54058135 6 12 C5.0925 11.608125 4.185 11.21625 3.25 10.8125 C-4.01064603 8.99733849 -10.01827528 9.09015231 -16.75 12.5625 C-38.5555222 25.87436979 -51.00148289 55.61328918 -61.93261719 77.83325195 C-65.21756317 84.49941526 -68.67800436 91.07111612 -72.14453125 97.64428711 C-74.15969402 101.46935099 -76.15775931 105.29631494 -78.06640625 109.17578125 C-79.94284929 112.95043141 -82.00933298 116.57974378 -84.1875 120.1875 C-84.57623291 120.83187012 -84.96496582 121.47624023 -85.36547852 122.14013672 C-90.89670161 131.21147622 -97.03679727 139.83630176 -103.4375 148.3125 C-103.86281006 148.88242676 -104.28812012 149.45235352 -104.72631836 150.03955078 C-105.76882721 151.39850165 -106.87890193 152.70512113 -108 154 C-108.66 154 -109.32 154 -110 154 C-110.268125 154.639375 -110.53625 155.27875 -110.8125 155.9375 C-112 158 -112 158 -115 159 C-115.33 159.99 -115.66 160.98 -116 162 C-119.4740261 164.63146792 -123.24721901 166.78980419 -127 169 C-127.68835938 169.40863281 -128.37671875 169.81726563 -129.0859375 170.23828125 C-141.43031257 176.98341446 -153.80734096 177.11553621 -166.9753418 173.39916992 C-182.08808294 168.79628107 -196.09623196 158.20082582 -207 147 C-208.20269531 145.81470703 -208.20269531 145.81470703 -209.4296875 144.60546875 C-213.77620157 140.30755787 -218.03685539 135.99185304 -222.00390625 131.33984375 C-223.66056012 129.39789528 -225.33775974 127.47954318 -227.02734375 125.56640625 C-228.12262738 124.31530684 -229.2176779 123.06400331 -230.3125 121.8125 C-231.10503174 120.92062988 -231.10503174 120.92062988 -231.91357422 120.01074219 C-234.6825304 116.82246394 -236.72349685 114.10801922 -238 110 C-238.66 110 -239.32 110 -240 110 C-240.33 108.68 -240.66 107.36 -241 106 C-236.53652371 106.38586127 -234.46638362 109.49545166 -231.75 112.6875 C-228.00721191 116.94132382 -224.33191032 120.58010205 -219.65234375 123.82421875 C-217.53475751 125.33105908 -215.79867863 127.13214142 -214 129 C-213.34 129.33 -212.68 129.66 -212 130 C-212 130.66 -212 131.32 -212 132 C-210.7625 132.3403125 -210.7625 132.3403125 -209.5 132.6875 C-206.65920855 133.75279679 -204.68129306 134.75078608 -202.1875 136.375 C-197.96590833 139.09860753 -193.6717084 141.16272308 -189 143 C-187.89591797 143.45246094 -187.89591797 143.45246094 -186.76953125 143.9140625 C-174.36546772 148.36041023 -162.34115853 146.81256789 -150.55078125 141.69140625 C-138.94247307 136.1618161 -128.20974109 127.13533576 -121.0859375 116.36328125 C-120.72757812 115.91339844 -120.36921875 115.46351563 -120 115 C-119.34 115 -118.68 115 -118 115 C-117.74347656 114.27683594 -117.48695313 113.55367188 -117.22265625 112.80859375 C-115.93167508 109.84304914 -114.3965948 107.63109096 -112.4375 105.0625 C-109.27015362 100.79146849 -106.25751532 96.46533885 -103.375 92 C-102.33472656 90.39125 -102.33472656 90.39125 -101.2734375 88.75 C-98.29803117 83.95562595 -95.67882384 78.96368 -93 74 C-90.72385934 69.82757632 -88.43970879 65.65961473 -86.15087891 61.49414062 C-85.46929856 60.25230836 -84.78895078 59.00979878 -84.10986328 57.76660156 C-79.32416742 49.00783161 -74.29497487 40.4612949 -69 32 C-68.40179443 31.02514648 -67.80358887 30.05029297 -67.18725586 29.04589844 C-62.63268877 21.62364096 -57.39780779 14.81733178 -52 8 C-51.36449219 7.1440625 -50.72898438 6.288125 -50.07421875 5.40625 C-44.02895468 -1.60671171 -35.13706602 -7.0598302 -26.0390625 -8.82421875 C-16.60403316 -9.36994667 -7.31532677 -5.92822192 0 0 Z " fill="#878E06" transform="translate(275,126)"/>
<path d="M0 0 C0.84462949 -0.00256327 1.68925897 -0.00512655 2.55948329 -0.0077675 C5.39407647 -0.01271502 8.22813886 0.00380349 11.06268311 0.02018738 C13.09280383 0.02103344 15.12292547 0.02055892 17.15304565 0.01885986 C22.6692419 0.01799768 28.18524321 0.0356597 33.70139408 0.05658174 C39.46429015 0.07531124 45.22719049 0.07709604 50.9901123 0.08065796 C61.90522341 0.08998938 72.82024457 0.11461804 83.73531604 0.14470643 C96.16079457 0.17821628 108.58627735 0.19472786 121.0117898 0.20979273 C146.57405153 0.2411666 172.13623338 0.29394845 197.69842529 0.36076355 C197.05346371 3.85190167 196.29441108 6.4540377 194.47576904 9.5131073 C193.79031006 10.68003113 193.79031006 10.68003113 193.09100342 11.87052917 C192.61082764 12.67168152 192.13065186 13.47283386 191.63592529 14.29826355 C186.916495 22.28034409 182.30064589 30.30687751 177.69842529 38.36076355 C107.40842529 38.36076355 37.11842529 38.36076355 -35.30157471 38.36076355 C-30.66606713 27.5445792 -24.52108152 18.6257973 -17.30157471 9.36076355 C-16.79110596 8.70463074 -16.28063721 8.04849792 -15.75469971 7.3724823 C-10.90350956 1.33844024 -7.72691631 -0.08548325 0 0 Z " fill="#A7B952" transform="translate(268.30157470703125,144.6392364501953)"/>
<path d="M0 0 C1.11185458 0.00873852 1.11185458 0.00873852 2.24617088 0.01765358 C3.42479723 0.01509031 3.42479723 0.01509031 4.62723422 0.01247525 C7.27446405 0.00916674 9.92144344 0.02020629 12.56865013 0.03111184 C14.46054663 0.03167566 16.35244357 0.03135996 18.24433982 0.03022683 C23.39285556 0.02965117 28.54127879 0.04143978 33.68977296 0.05537474 C39.06564355 0.06784678 44.44151608 0.06904981 49.81739891 0.07142556 C60.00298503 0.07765072 70.18852841 0.09407552 80.37409568 0.11412454 C91.96762772 0.13645134 103.56116176 0.14746886 115.15470994 0.15751541 C139.00869681 0.17844088 162.86264568 0.21363694 186.71659935 0.25816262 C186.19391469 3.02092439 185.60790348 5.58425021 184.71659935 8.25816262 C184.05659935 8.25816262 183.39659935 8.25816262 182.71659935 8.25816262 C182.31344505 9.57155617 182.31344505 9.57155617 181.90214622 10.91148293 C180.76624041 14.11803088 179.42310834 16.85107352 177.74784935 19.80503762 C177.17679466 20.81437356 176.60573997 21.82370949 176.0173806 22.86363137 C175.42312278 23.90132668 174.82886497 24.93902199 174.21659935 26.00816262 C173.62234153 27.06132668 173.02808372 28.11449074 172.4158181 29.19956887 C167.98664213 36.98811983 167.98664213 36.98811983 165.71659935 39.25816262 C163.19553281 39.45123671 160.78480051 39.51870216 158.26295555 39.49867165 C157.09657985 39.50123493 157.09657985 39.50123493 155.90664101 39.50384998 C153.28704928 39.50715837 150.66771066 39.49611916 148.04814231 39.4852134 C146.17594999 39.48464958 144.30375723 39.48496528 142.43156517 39.48609841 C137.33676632 39.48667405 132.24206096 39.47488562 127.14728391 39.46095049 C121.82746781 39.44847828 116.50764974 39.44727541 111.18782127 39.44489968 C101.10848283 39.43867456 91.02918759 39.42224983 80.9498682 39.4022007 C69.47725291 39.37987373 58.00463559 39.36885634 46.532004 39.35880983 C22.92684513 39.33788447 -0.67827535 39.30268851 -24.28340065 39.25816262 C-23.69037995 35.41604108 -23.07595491 32.35899902 -21.2091819 28.93785012 C-20.79152565 28.16046486 -20.3738694 27.38307961 -19.9435569 26.58213723 C-19.27646706 25.3698948 -19.27646706 25.3698948 -18.59590065 24.13316262 C-17.68466787 22.44494116 -16.77451072 20.75613868 -15.8654319 19.06675637 C-15.42280007 18.24804055 -14.98016823 17.42932473 -14.52412331 16.58579934 C-12.38858555 12.57945991 -10.41233464 8.499238 -8.43965065 4.41050637 C-6.21241127 0.26453034 -4.54377143 0.02689343 0 0 Z " fill="#A6B74E" transform="translate(232.28340065479279,193.7418373823166)"/>
<path d="M0 0 C1.60862191 0.03892333 3.21721847 0.07890615 4.82579041 0.11984253 C6.53123269 0.1229476 8.23668966 0.12119923 9.94212341 0.11497498 C14.56062589 0.11182391 19.17597359 0.17639679 23.79374385 0.25328851 C28.62356272 0.32214635 33.45345743 0.3285216 38.28369141 0.34156799 C47.42501567 0.37573116 56.56488945 0.46595948 65.70557553 0.57641238 C76.11404058 0.69944903 86.52257565 0.75986525 96.9315871 0.81506217 C118.33861815 0.92998036 139.74434429 1.12340727 161.1502533 1.36862183 C160.26262307 6.16596962 158.67538533 9.21437234 156.1502533 13.36862183 C155.4902533 13.36862183 154.8302533 13.36862183 154.1502533 13.36862183 C154.03472107 13.9325061 153.91918884 14.49639038 153.80015564 15.07736206 C152.54304212 19.50937198 149.9987192 23.42033141 147.7752533 27.43112183 C147.0327533 28.79720581 147.0327533 28.79720581 146.2752533 30.19088745 C145.55208923 31.50283081 145.55208923 31.50283081 144.8143158 32.84127808 C144.37555115 33.63799927 143.9367865 34.43472046 143.48472595 35.25558472 C142.10364841 37.44241717 141.22173292 38.81534369 139.1502533 40.36862183 C136.04806995 40.73776531 136.04806995 40.73776531 132.14581299 40.72938538 C131.42862805 40.73194865 130.71144311 40.73451192 129.9725253 40.73715287 C127.563198 40.74210442 125.15449381 40.72557583 122.745224 40.709198 C121.02066564 40.70835202 119.29610619 40.7088263 117.57154846 40.71052551 C112.88376489 40.71138803 108.19621051 40.69372078 103.50848031 40.67280364 C98.61175456 40.65407958 93.71502385 40.65228977 88.81826782 40.64872742 C79.54287509 40.63939438 70.26758814 40.61476358 60.99224204 40.58467895 C50.43374255 40.55117408 39.87523807 40.53465878 29.31669867 40.51959264 C7.59449112 40.48821512 -14.12762114 40.43543017 -35.8497467 40.36862183 C-35.8497467 35.52866957 -34.80380413 34.58115346 -31.8497467 30.86862183 C-31.01642506 29.799022 -30.18575713 28.72735013 -29.3575592 27.65377808 C-28.72575745 26.83610962 -28.72575745 26.83610962 -28.08119202 26.00192261 C-24.27374883 20.95200292 -20.1964642 15.50507787 -17.69798946 9.68622112 C-13.51385035 1.12102509 -8.88051527 -0.01813604 0 0 Z " fill="#A7B855" transform="translate(212.84974670410156,242.63137817382813)"/>
<path d="M0 0 C-1.51774356 3.03548712 -3.91584498 3.38458729 -7 4.6875 C-23.61830401 12.22644708 -33.52335876 26.00290833 -43 41 C-43.71285156 42.10730469 -44.42570313 43.21460938 -45.16015625 44.35546875 C-49.28536894 50.88109422 -52.84376853 57.54652495 -56.23046875 64.48046875 C-58.28254511 68.56197163 -60.51371371 72.51500526 -62.80859375 76.46411133 C-64.73098427 79.77464023 -66.61423805 83.10099239 -68.44921875 86.4609375 C-73.26358695 95.27539074 -78.20982774 103.78054977 -84 112 C-84.62261719 112.90878906 -85.24523437 113.81757813 -85.88671875 114.75390625 C-94.08151426 126.43938545 -103.11044116 136.07362744 -115 144 C-115.65097656 144.44085938 -116.30195313 144.88171875 -116.97265625 145.3359375 C-131.28565013 153.70353392 -149.67927811 151.55031342 -165 148 C-167.78015034 147.1403992 -170.33166939 146.16739464 -173 145 C-172.505 143.02 -172.505 143.02 -172 141 C-171.05640625 140.91363281 -170.1128125 140.82726562 -169.140625 140.73828125 C-157.21530644 139.43320121 -147.66180897 136.35137639 -138 129 C-137.34 129 -136.68 129 -136 129 C-135.67 128.01 -135.34 127.02 -135 126 C-133.2578125 124.31640625 -133.2578125 124.31640625 -131.125 122.5625 C-128.89360158 120.72221385 -127.0837276 119.1139737 -125.3671875 116.77734375 C-124.91601562 116.19082031 -124.46484375 115.60429687 -124 115 C-123.34 115 -122.68 115 -122 115 C-121.690625 114.38125 -121.38125 113.7625 -121.0625 113.125 C-120.375 111.75 -119.6875 110.375 -119 109 C-118.34 109 -117.68 109 -117 109 C-116.77054688 108.3296875 -116.54109375 107.659375 -116.3046875 106.96875 C-114.63867566 103.17782485 -112.42712444 99.9308457 -110.125 96.5 C-102.81436436 85.42010655 -95.85778417 73.92302801 -90 62 C-89.34 62 -88.68 62 -88 62 C-87.82984375 60.89978516 -87.82984375 60.89978516 -87.65625 59.77734375 C-86.97786735 56.90633146 -86.05478195 55.05446996 -84.5 52.5625 C-83.96375 51.69882813 -83.4275 50.83515625 -82.875 49.9453125 C-82.25625 48.97335938 -81.6375 48.00140625 -81 47 C-80.64808594 46.44538086 -80.29617187 45.89076172 -79.93359375 45.31933594 C-77.66338342 41.74592996 -75.37055562 38.1879057 -73.06201172 34.63916016 C-72.08637159 33.13331008 -71.1226703 31.61974244 -70.16015625 30.10546875 C-69.63292969 29.28691406 -69.10570312 28.46835938 -68.5625 27.625 C-68.11003906 26.91601562 -67.65757812 26.20703125 -67.19140625 25.4765625 C-66.79824219 24.98929688 -66.40507812 24.50203125 -66 24 C-65.34 24 -64.68 24 -64 24 C-63.690625 23.38125 -63.38125 22.7625 -63.0625 22.125 C-62.375 20.75 -61.6875 19.375 -61 18 C-60.34 18 -59.68 18 -59 18 C-58.731875 17.360625 -58.46375 16.72125 -58.1875 16.0625 C-57 14 -57 14 -54 13 C-53.69835937 12.39027344 -53.39671875 11.78054687 -53.0859375 11.15234375 C-49.22510917 3.50012646 -37.6217963 -0.39112489 -30 -3 C-20.37473269 -5.42923413 -8.72659078 -5.09051129 0 0 Z " fill="#878E06" transform="translate(245,115)"/>
<path d="M0 0 C1.0979187 -0.00574036 1.0979187 -0.00574036 2.21801758 -0.01159668 C3.75766382 -0.0143053 5.29735691 -0.00701781 6.83691406 0.00976562 C9.18139113 0.03119416 11.5228047 0.00993221 13.8671875 -0.015625 C15.36979837 -0.01298153 16.87240734 -0.00785615 18.375 0 C19.06891846 -0.00809692 19.76283691 -0.01619385 20.4777832 -0.02453613 C25.47942497 0.07088712 28.31573261 1.42910332 32.1875 4.53125 C34.70544935 7.90544725 34.48682903 11.35501711 34.5 15.46875 C34.51675781 16.67402344 34.53351563 17.87929687 34.55078125 19.12109375 C34.07506534 23.58668506 32.74211527 26.08535836 29.4699707 29.12866211 C26.55405725 30.92050325 24.3372776 31.03397948 20.9375 31.21875 C19.85984375 31.28449219 18.7821875 31.35023438 17.671875 31.41796875 C16.85203125 31.45535156 16.0321875 31.49273437 15.1875 31.53125 C15.19535522 32.40662415 15.19535522 32.40662415 15.20336914 33.29968262 C15.25023062 39.40027571 15.24092744 45.49898919 15.19970703 51.59960938 C15.19161998 53.8730409 15.19762466 56.14656963 15.21826172 58.41992188 C15.24553028 61.69788979 15.22132186 64.97216091 15.1875 68.25 C15.2069165 69.25865112 15.22633301 70.26730225 15.24633789 71.30651855 C15.1322875 76.94775398 14.38564278 79.9622577 10.36328125 84.04882812 C9.00203568 85.2454672 7.61051419 86.40876829 6.1875 87.53125 C5.2133313 88.31961243 5.2133313 88.31961243 4.21948242 89.12390137 C-0.24621606 92.53125 -0.24621606 92.53125 -3.8125 92.53125 C-3.8125 93.19125 -3.8125 93.85125 -3.8125 94.53125 C-8.02036142 96.13424483 -11.33065878 96.63168342 -15.8125 96.53125 C-15.85881607 85.12657517 -15.89436553 73.72192268 -15.91612434 62.317173 C-15.92656684 57.02163626 -15.94073462 51.7261638 -15.96337891 46.43066406 C-15.98509056 41.32136146 -15.99706512 36.21212074 -16.00225449 31.10277557 C-16.00595325 29.15231095 -16.01317589 27.20184976 -16.02396011 25.25141144 C-16.03845267 22.52202502 -16.04047887 19.79289519 -16.03955078 17.06347656 C-16.04674133 16.25499268 -16.05393188 15.44650879 -16.06134033 14.61352539 C-16.03561169 7.63286316 -16.03561169 7.63286316 -13.8125 4.53125 C-9.34367394 0.77412587 -5.68693919 -0.06635753 0 0 Z " fill="#9DAE11" transform="translate(96.8125,144.46875)"/>
<path d="M0 0 C1 3 1 3 0.13549805 5.14477539 C-0.31784912 5.95422607 -0.77119629 6.76367676 -1.23828125 7.59765625 C-1.72876953 8.48130859 -2.21925781 9.36496094 -2.72460938 10.27539062 C-3.24861328 11.19513672 -3.77261719 12.11488281 -4.3125 13.0625 C-4.82490234 13.98611328 -5.33730469 14.90972656 -5.86523438 15.86132812 C-9.69247041 22.69247041 -9.69247041 22.69247041 -12 25 C-14.52106654 25.19307409 -16.93179883 25.26053955 -19.4536438 25.24050903 C-20.6200195 25.24307231 -20.6200195 25.24307231 -21.80995834 25.24568737 C-24.42955007 25.24899575 -27.04888869 25.23795654 -29.66845703 25.22705078 C-31.54064935 25.22648696 -33.41284212 25.22680266 -35.28503418 25.22793579 C-40.37983303 25.22851143 -45.47453838 25.216723 -50.56931543 25.20278788 C-55.88913154 25.19031566 -61.20894961 25.1891128 -66.52877808 25.18673706 C-76.60811652 25.18051195 -86.68741176 25.16408721 -96.76673114 25.14403808 C-108.23934643 25.12171111 -119.71196375 25.11069372 -131.18459535 25.10064721 C-154.78975421 25.07972186 -178.39487469 25.0445259 -202 25 C-200 23 -200 23 -196.86138916 22.78297997 C-195.48336246 22.78807784 -194.10535272 22.80443224 -192.72753906 22.82919312 C-191.96926158 22.83468977 -191.2109841 22.84018642 -190.42972851 22.84584963 C-187.87485511 22.86639892 -185.32035087 22.90096839 -182.765625 22.93505859 C-180.93922368 22.95194498 -179.11281191 22.96773215 -177.28639221 22.98249817 C-173.34506375 23.01512132 -169.40381563 23.05244115 -165.46255493 23.09238815 C-159.22598101 23.15240219 -152.98949629 23.18256065 -146.75268555 23.20474243 C-145.70056602 23.20856159 -144.64844648 23.21238074 -143.56444454 23.21631563 C-140.32291181 23.22780791 -137.08137789 23.23891303 -133.83984375 23.25 C-120.40571168 23.29669862 -106.97286861 23.36497116 -93.53955078 23.52441406 C-83.74901138 23.64040896 -73.95995647 23.69964564 -64.16870689 23.6931082 C-58.98688874 23.69184178 -53.80880342 23.71926111 -48.62780762 23.81574631 C-43.74744359 23.90607194 -38.87252762 23.92108018 -33.99155998 23.87953758 C-32.20563094 23.87752155 -30.41942151 23.90268622 -28.63434029 23.95774651 C-19.3162413 24.43761941 -19.3162413 24.43761941 -11.3050499 20.43676424 C-7.74647575 16.03604777 -5.32481906 11.12867829 -3 6 C-2.00236853 3.99881749 -1.00334562 1.99832369 0 0 Z " fill="#BCD096" transform="translate(410,208)"/>
<path d="M0 0 C1.2748397 0.00092179 2.54967939 0.00184359 3.8631506 0.00279331 C4.57045958 0.00193889 5.27776856 0.00108446 6.00651115 0.00020415 C8.39420988 -0.00145272 10.78183949 0.00407406 13.16953182 0.00952244 C14.87409113 0.00980429 16.57865056 0.00964661 18.2832098 0.00907993 C22.92557505 0.00879189 27.5679147 0.01468976 32.21027398 0.02165389 C37.05630601 0.02788624 41.90233857 0.02849113 46.74837399 0.0296793 C55.93170669 0.03279297 65.11502756 0.04100683 74.29835504 0.05102879 C84.75041476 0.06218883 95.20247504 0.0677001 105.65453923 0.07272422 C127.16141512 0.08318941 148.66828035 0.10078954 170.17514706 0.12304783 C169.84514706 1.44304783 169.51514706 2.76304783 169.17514706 4.12304783 C168.51514706 4.12304783 167.85514706 4.12304783 167.17514706 4.12304783 C167.17514706 3.46304783 167.17514706 2.80304783 167.17514706 2.12304783 C145.33040536 1.85617434 123.48683665 1.68707158 101.64048958 1.63339233 C91.49589966 1.60620229 81.35335792 1.54739068 71.20957088 1.41333103 C62.36488391 1.29652131 53.52217158 1.23986224 44.67668992 1.25451046 C39.99477524 1.26018692 35.31731526 1.23637939 30.63628864 1.14044094 C12.42381637 -0.13892311 12.42381637 -0.13892311 -4.46687794 4.83354664 C-8.32757878 8.72429713 -10.60365243 13.03108372 -12.19174576 18.25174141 C-12.82485294 20.12304783 -12.82485294 20.12304783 -14.82485294 23.12304783 C-15.48485294 23.12304783 -16.14485294 23.12304783 -16.82485294 23.12304783 C-15.44037329 20.20317367 -13.84707247 17.59322863 -12.01235294 14.93554783 C-9.36877233 11.02849118 -7.03453483 7.02847426 -4.80532169 2.87304783 C-3.27558508 0.14268128 -3.27558508 0.14268128 0 0 Z " fill="#ABBD15" transform="translate(203.8248529434204,243.87695217132568)"/>
<path d="M0 0 C0.99 0.99 0.99 0.99 2 2 C-6.54229749 21.70799091 -6.54229749 21.70799091 -12 31 C-12.46535156 31.80566406 -12.93070312 32.61132812 -13.41015625 33.44140625 C-15.88474213 37.58976451 -15.88474213 37.58976451 -17 39 C-17.66 39 -18.32 39 -19 39 C-19.21398437 39.68449219 -19.42796875 40.36898437 -19.6484375 41.07421875 C-21.41141274 44.89060157 -23.85875386 47.67742104 -26.625 50.8125 C-27.43686768 51.74280029 -27.43686768 51.74280029 -28.26513672 52.69189453 C-35.17594234 60.5526532 -42.37982904 67.9754939 -51 74 C-51.66 74 -52.32 74 -53 74 C-53 74.66 -53 75.32 -53 76 C-54.67724609 77.24926758 -54.67724609 77.24926758 -57.0234375 78.64453125 C-57.88066406 79.15693359 -58.73789062 79.66933594 -59.62109375 80.19726562 C-60.52988281 80.73029297 -61.43867188 81.26332031 -62.375 81.8125 C-63.24511719 82.33392578 -64.11523438 82.85535156 -65.01171875 83.39257812 C-73.76083619 88.58372114 -82.62952106 93.12121481 -92.1875 96.625 C-92.99977051 96.92349854 -93.81204102 97.22199707 -94.64892578 97.52954102 C-103.3997873 100.64482032 -112.63329567 103.29819096 -122 103 C-121.505 102.01 -121.505 102.01 -121 101 C-118.28944496 100.30877828 -115.61663915 99.72405922 -112.875 99.1875 C-93.8562341 95.17721329 -76.01033819 88.14299772 -60 77 C-59.1234375 76.40832031 -58.246875 75.81664062 -57.34375 75.20703125 C-50.13761346 70.18551369 -43.76623102 64.43685273 -37.43798828 58.375 C-36.20689555 57.1978329 -34.9621926 56.03492782 -33.71484375 54.875 C-17.90609071 39.78911241 -8.43373016 19.79654026 0 0 Z " fill="#BFD4A3" transform="translate(381,317)"/>
<path d="M0 0 C1.10084794 3.30254383 0.96485826 3.83809991 -0.15234375 6.95703125 C-0.56867065 8.12081299 -0.56867065 8.12081299 -0.9934082 9.30810547 C-1.3049585 10.13455566 -1.61650879 10.96100586 -1.9375 11.8125 C-2.4173938 13.09084717 -2.4173938 13.09084717 -2.90698242 14.39501953 C-7.91773203 27.33672288 -15.2158884 38.3434132 -24 49 C-24.71929687 49.87398438 -25.43859375 50.74796875 -26.1796875 51.6484375 C-35.58272014 62.56697724 -46.53967257 70.88272623 -59 78 C-59.33 77.34 -59.66 76.68 -60 76 C-59.32195312 75.5875 -58.64390625 75.175 -57.9453125 74.75 C-51.98239913 71.05002052 -46.46564785 67.11884024 -41.09375 62.6015625 C-39 61 -39 61 -36 60 C-35.71125 59.4225 -35.4225 58.845 -35.125 58.25 C-33.60387378 55.20774755 -31.51286104 53.26157493 -29 51 C-28.34 51 -27.68 51 -27 51 C-26.74476563 50.26652344 -26.48953125 49.53304687 -26.2265625 48.77734375 C-24.93482311 45.85241793 -23.46703494 43.96708997 -21.375 41.5625 C-13.68434906 32.14423907 -8.61400957 21.76869569 -4.32421875 10.47265625 C-2.97454414 6.93324407 -1.5122093 3.47231637 0 0 Z " fill="#D3EAA8" transform="translate(357,299)"/>
<path d="M0 0 C0.99 0.99 0.99 0.99 2 2 C1.34 2 0.68 2 0 2 C-0.11553223 2.56388428 -0.23106445 3.12776855 -0.35009766 3.70874023 C-1.60721118 8.14075015 -4.1515341 12.05170959 -6.375 16.0625 C-6.87 16.97322266 -7.365 17.88394531 -7.875 18.82226562 C-8.35710937 19.69689453 -8.83921875 20.57152344 -9.3359375 21.47265625 C-9.99408447 22.66773804 -9.99408447 22.66773804 -10.66552734 23.88696289 C-12.01332478 26.02109878 -13.01781531 27.43975253 -15 29 C-17.52470398 29.36076355 -17.52470398 29.36076355 -20.57299805 29.34057617 C-22.28443245 29.34023628 -22.28443245 29.34023628 -24.03044128 29.33988953 C-25.87742363 29.31666374 -25.87742363 29.31666374 -27.76171875 29.29296875 C-29.65311333 29.28660149 -29.65311333 29.28660149 -31.5827179 29.28010559 C-34.93174943 29.26614627 -38.28016758 29.23920104 -41.62902832 29.20599365 C-45.04755353 29.17528105 -48.46614215 29.16159776 -51.88476562 29.14648438 C-58.59001349 29.11337223 -65.29497133 29.06314018 -72 29 C-72 28.34 -72 27.68 -72 27 C-53.19 27 -34.38 27 -15 27 C-14.34 25.35 -13.68 23.7 -13 22 C-12.0198038 20.21465467 -11.00430674 18.4483966 -9.9609375 16.69921875 C-9.38085938 15.72275391 -8.80078125 14.74628906 -8.203125 13.74023438 C-7.59984375 12.73283203 -6.9965625 11.72542969 -6.375 10.6875 C-5.76398438 9.66076172 -5.15296875 8.63402344 -4.5234375 7.57617188 C-3.01880606 5.04886125 -1.5109006 2.52356601 0 0 Z " fill="#A5B694" transform="translate(367,254)"/>
<path d="M0 0 C24.42 0 48.84 0 74 0 C73.67 1.32 73.34 2.64 73 4 C72.34 4 71.68 4 71 4 C71 3.34 71 2.68 71 2 C47.24 2 23.48 2 -1 2 C-0.67 1.34 -0.34 0.68 0 0 Z " fill="#B4C82F" transform="translate(300,244)"/>
<path d="M0 0 C0.66 0.66 1.32 1.32 2 2 C1.66379639 2.53665283 1.32759277 3.07330566 0.98120117 3.6262207 C-8.58453524 18.92068195 -17.90648432 34.32909742 -26.484375 50.203125 C-32.22324773 60.79341591 -38.11798408 71.09889807 -45 81 C-45.33 80.34 -45.66 79.68 -46 79 C-44.84765625 76.63671875 -44.84765625 76.63671875 -43.0625 73.6875 C-42.40636719 72.59308594 -41.75023437 71.49867188 -41.07421875 70.37109375 C-39.79617021 68.29396402 -38.50902746 66.2223594 -37.20703125 64.16015625 C-32.0408137 55.95369126 -27.44717202 47.5028084 -22.86450195 38.95947266 C-18.48069764 30.81474843 -13.84801013 22.87434372 -9 15 C-7.87245002 13.12653235 -6.74717432 11.25169251 -5.625 9.375 C-3.75 6.25 -1.875 3.125 0 0 Z " fill="#9DA606" transform="translate(212,148)"/>
<path d="M0 0 C0.33 0.66 0.66 1.32 1 2 C0.23413086 3.86572266 0.23413086 3.86572266 -1.03515625 6.1640625 C-1.50832275 7.02765381 -1.98148926 7.89124512 -2.46899414 8.78100586 C-3.25777954 10.18878296 -3.25777954 10.18878296 -4.0625 11.625 C-4.59673584 12.59252197 -5.13097168 13.56004395 -5.68139648 14.55688477 C-10.43257312 23.10927668 -15.36006813 31.55949592 -20.36547852 39.96533203 C-23.27397752 44.88059933 -25.91977457 49.67728796 -28 55 C-28.66 55 -29.32 55 -30 55 C-29.43574085 51.52198088 -28.59019355 48.89039033 -26.81640625 45.8515625 C-26.36797363 45.07329102 -25.91954102 44.29501953 -25.45751953 43.49316406 C-24.97653809 42.67041992 -24.49555664 41.84767578 -24 41 C-23.00791577 39.25849488 -22.01705995 37.51628948 -21.02734375 35.7734375 C-19.99795337 33.97363933 -18.96800035 32.17416287 -17.9375 30.375 C-17.42123047 29.47265625 -16.90496094 28.5703125 -16.37304688 27.640625 C-15.36898762 25.88575965 -14.36468376 24.13103424 -13.36010742 22.37646484 C-12.19179025 20.33510793 -11.02519038 18.2927861 -9.859375 16.25 C-8.0204442 13.0357344 -6.17187518 9.82748133 -4.3125 6.625 C-3.71050781 5.58601562 -3.10851562 4.54703125 -2.48828125 3.4765625 C-1 1 -1 1 0 0 Z " fill="#CCE282" transform="translate(387,242)"/>
<path d="M0 0 C4.75481646 0.57634139 7.97048212 2.55068521 12 5 C12 5.66 12 6.32 12 7 C12.57363281 7.26039063 13.14726562 7.52078125 13.73828125 7.7890625 C16.1744207 9.09338587 18.09306786 10.57528158 20.1875 12.375 C20.88230469 12.96023437 21.57710938 13.54546875 22.29296875 14.1484375 C24.12401235 16.13451225 24.61074192 17.36234076 25 20 C24.071875 19.566875 23.14375 19.13375 22.1875 18.6875 C18.00342392 16.86609522 13.68505707 15.81369905 9.2578125 14.74609375 C8.51273437 14.49988281 7.76765625 14.25367188 7 14 C6.67 13.34 6.34 12.68 6 12 C6.62648438 12.0721875 7.25296875 12.144375 7.8984375 12.21875 C8.71570313 12.3115625 9.53296875 12.404375 10.375 12.5 C11.18710937 12.5928125 11.99921875 12.685625 12.8359375 12.78125 C14.96912825 13.03352351 14.96912825 13.03352351 17 13 C15.29779622 11.55524697 13.58793493 10.1195136 11.875 8.6875 C10.92367188 7.88699219 9.97234375 7.08648437 8.9921875 6.26171875 C6.10101249 4.07635278 3.28665134 2.50678822 0 1 C0 0.67 0 0.34 0 0 Z " fill="#959D06" transform="translate(263,121)"/>
<path d="M0 0 C0.66 0.66 1.32 1.32 2 2 C1.34 2 0.68 2 0 2 C-0.17329834 2.84582642 -0.17329834 2.84582642 -0.35009766 3.70874023 C-1.60721118 8.14075015 -4.1515341 12.05170959 -6.375 16.0625 C-6.87 16.97322266 -7.365 17.88394531 -7.875 18.82226562 C-8.35710937 19.69689453 -8.83921875 20.57152344 -9.3359375 21.47265625 C-9.77470215 22.26937744 -10.2134668 23.06609863 -10.66552734 23.88696289 C-11.95115432 25.92265653 -13.15363148 27.45929912 -15 29 C-15.66 29 -16.32 29 -17 29 C-17 28.34 -17 27.68 -17 27 C-16.34 27 -15.68 27 -15 27 C-14.73268066 26.28432861 -14.46536133 25.56865723 -14.18994141 24.83129883 C-12.97897341 21.94997017 -11.56134368 19.38225264 -9.9609375 16.69921875 C-9.38085938 15.72275391 -8.80078125 14.74628906 -8.203125 13.74023438 C-7.59984375 12.73283203 -6.9965625 11.72542969 -6.375 10.6875 C-5.76398438 9.66076172 -5.15296875 8.63402344 -4.5234375 7.57617188 C-3.01880606 5.04886125 -1.5109006 2.52356601 0 0 Z " fill="#BDD587" transform="translate(367,254)"/>
<path d="M0 0 C0.66 0.33 1.32 0.66 2 1 C-14.54573171 22.12134146 -14.54573171 22.12134146 -25 27 C-25 26.34 -25 25.68 -25 25 C-23.42019365 23.63343747 -21.78331347 22.33264868 -20.125 21.0625 C-13.97216161 16.15298129 -6.56409463 10.12818927 -3 3 C-2.34 3 -1.68 3 -1 3 C-0.67 2.01 -0.34 1.02 0 0 Z " fill="#979F06" transform="translate(158,238)"/>
<path d="M0 0 C-1.155 0.53625 -2.31 1.0725 -3.5 1.625 C-8.09325272 3.91756154 -11.98928308 6.82087881 -16 10 C-16.86625 10.639375 -17.7325 11.27875 -18.625 11.9375 C-21.77408858 14.67223482 -24.36509221 17.77653892 -27 21 C-27.33 20.34 -27.66 19.68 -28 19 C-27.67 18.34 -27.34 17.68 -27 17 C-26.34 17 -25.68 17 -25 17 C-24.731875 16.360625 -24.46375 15.72125 -24.1875 15.0625 C-23 13 -23 13 -20 12 C-19.70867187 11.39414063 -19.41734375 10.78828125 -19.1171875 10.1640625 C-17.63759789 7.2980043 -15.78581935 6.16730265 -13.125 4.375 C-12.26132813 3.78460938 -11.39765625 3.19421875 -10.5078125 2.5859375 C-4.1020913 -1.46503261 -4.1020913 -1.46503261 0 0 Z " fill="#939A05" transform="translate(211,116)"/>
<path d="M0 0 C3.57206569 0.69409807 6.42169952 2.17615199 9.625 3.875 C14.96265269 6.60284216 20.19645372 8.53627373 26 10 C26 10.66 26 11.32 26 12 C17.77895515 10.58257847 10.54700825 7.41386718 3 4 C2.67 4.66 2.34 5.32 2 6 C1.34 6 0.68 6 0 6 C0 4.02 0 2.04 0 0 Z " fill="#B7CA3D" transform="translate(85,299)"/>
<path d="M0 0 C0.66 0.66 1.32 1.32 2 2 C0.27321242 5.00137521 -1.45687227 8.00083769 -3.1875 11 C-3.67025391 11.83917969 -4.15300781 12.67835938 -4.65039062 13.54296875 C-7.66560793 18.76394905 -10.77490647 23.90588518 -14 29 C-14.66 28.34 -15.32 27.68 -16 27 C-15.27296875 25.83597656 -15.27296875 25.83597656 -14.53125 24.6484375 C-9.49689866 16.53538669 -4.68856852 8.31722128 0 0 Z " fill="#B3C65B" transform="translate(463,148)"/>
<path d="M0 0 C1.12956106 3.38868319 0.89955255 3.98975689 -0.29296875 7.203125 C-0.59396484 8.01910156 -0.89496094 8.83507812 -1.20507812 9.67578125 C-1.69137695 10.95001953 -1.69137695 10.95001953 -2.1875 12.25 C-2.49236328 13.08402344 -2.79722656 13.91804688 -3.11132812 14.77734375 C-5.00333 19.830615 -7.19183304 24.39236463 -10 29 C-10.66 29 -11.32 29 -12 29 C-10.65604311 24.71091271 -9.00608805 20.73787814 -7.0625 16.6875 C-4.6385313 11.52622031 -2.71924747 6.42920253 -1 1 C-0.67 0.67 -0.34 0.34 0 0 Z " fill="#D1E494" transform="translate(357,299)"/>
<path d="M0 0 C0.99 0.33 1.98 0.66 3 1 C1.62158466 3.067623 0.24234768 5.13463811 -1.140625 7.19921875 C-2.47773242 9.21330702 -3.7987719 11.23809645 -5.109375 13.26953125 C-5.81578125 14.35621094 -6.5221875 15.44289063 -7.25 16.5625 C-7.91515625 17.59503906 -8.5803125 18.62757813 -9.265625 19.69140625 C-9.83796875 20.45324219 -10.4103125 21.21507812 -11 22 C-11.66 22 -12.32 22 -13 22 C-11.61552034 19.08012584 -10.02221953 16.4701808 -8.1875 13.8125 C-5.17223484 9.35257462 -2.53563207 4.74589543 0 0 Z " fill="#B4CA1F" transform="translate(200,245)"/>
<path d="M0 0 C2.37202385 0.38860816 3.69347107 0.69262431 5.4140625 2.41796875 C7.98196511 6.17041998 9.80628882 9.55071287 11 14 C4.42857143 9 4.42857143 9 3 4 C2.34 4 1.68 4 1 4 C0.67 2.68 0.34 1.36 0 0 Z " fill="#717705" transform="translate(34,232)"/>
<path d="M0 0 C0.99 0.33 1.98 0.66 3 1 C1.04761147 3.00612399 -0.91137822 5.00492433 -2.875 7 C-3.43058594 7.57234375 -3.98617188 8.1446875 -4.55859375 8.734375 C-6.00134404 10.19450782 -7.4974374 11.60149298 -9 13 C-9.66 13 -10.32 13 -11 13 C-8.80821323 7.8194131 -4.93234093 2.79499319 0 0 Z " fill="#A5B710" transform="translate(260,145)"/>
<path d="M0 0 C0.66 0 1.32 0 2 0 C0.65072455 4.53847198 -1.19159348 8.31932246 -3.625 12.375 C-4.25664062 13.43460938 -4.88828125 14.49421875 -5.5390625 15.5859375 C-6.02117187 16.38257813 -6.50328125 17.17921875 -7 18 C-7.99 17.67 -8.98 17.34 -10 17 C-9.61328125 16.35933594 -9.2265625 15.71867188 -8.828125 15.05859375 C-5.82530273 10.07123301 -2.86455182 5.06805323 0 0 Z " fill="#919705" transform="translate(153,181)"/>
<path d="M0 0 C0.66 0.33 1.32 0.66 2 1 C-0.97 7.27 -3.94 13.54 -7 20 C-7.66 20 -8.32 20 -9 20 C-8.40440894 15.13127946 -6.27522585 11.40671159 -3.9375 7.1875 C-3.56044922 6.49462891 -3.18339844 5.80175781 -2.79492188 5.08789062 C-1.86916148 3.38871015 -0.93537688 1.69390575 0 0 Z " fill="#BBD152" transform="translate(217,212)"/>
<path d="M0 0 C1 3 1 3 0.109375 4.796875 C-0.33921875 5.44140625 -0.7878125 6.0859375 -1.25 6.75 C-3.67108282 10.39174017 -5.39238966 13.93866861 -7 18 C-7.99 17.67 -8.98 17.34 -10 17 C-8.71275182 14.53926045 -7.42044687 12.08141829 -6.125 9.625 C-5.76019531 8.92632812 -5.39539063 8.22765625 -5.01953125 7.5078125 C-2.2265625 2.2265625 -2.2265625 2.2265625 0 0 Z " fill="#B0C215" transform="translate(227,194)"/>
<path d="M0 0 C3.75594158 1.53146593 5.89280019 3.79948854 8.5625 6.8125 C9.32691406 7.66457031 10.09132813 8.51664062 10.87890625 9.39453125 C12.86270271 11.83134936 14.46306035 14.26493486 16 17 C14.0625 16.1875 14.0625 16.1875 12 15 C11.67 14.01 11.34 13.02 11 12 C10.34 12 9.68 12 9 12 C7.39593747 10.24248022 5.86432623 8.41824776 4.375 6.5625 C3.55773437 5.55316406 2.74046875 4.54382813 1.8984375 3.50390625 C0 1 0 1 0 0 Z " fill="#B9CB60" transform="translate(112,360)"/>
<path d="M0 0 C1 3 1 3 0.28735352 4.80932617 C-0.09493408 5.46392822 -0.47722168 6.11853027 -0.87109375 6.79296875 C-1.48500977 7.8612793 -1.48500977 7.8612793 -2.11132812 8.95117188 C-2.54896484 9.68916016 -2.98660156 10.42714844 -3.4375 11.1875 C-3.87126953 11.93708984 -4.30503906 12.68667969 -4.75195312 13.45898438 C-5.82557231 15.31127243 -6.91162681 17.1563425 -8 19 C-8.66 18.34 -9.32 17.68 -10 17 C-9.52949219 16.27554688 -9.05898438 15.55109375 -8.57421875 14.8046875 C-3.93179183 7.59989702 -3.93179183 7.59989702 0 0 Z " fill="#B9CF8B" transform="translate(410,208)"/>
<path d="M0 0 C4.62 0 9.24 0 14 0 C13.67 1.32 13.34 2.64 13 4 C12.34 4 11.68 4 11 4 C11 3.34 11 2.68 11 2 C8.02148438 2.09765625 8.02148438 2.09765625 5.04296875 2.1953125 C3 2 3 2 0 0 Z " fill="#B5C743" transform="translate(360,244)"/>
<path d="M0 0 C0.66 0.33 1.32 0.66 2 1 C0.38287572 3.33916131 -1.24305362 5.67121701 -2.875 8 C-3.33519531 8.66773438 -3.79539063 9.33546875 -4.26953125 10.0234375 C-5.46305946 11.71859351 -6.72690339 13.3637578 -8 15 C-8.66 15 -9.32 15 -10 15 C-8.66932878 10.26872454 -5.80856057 7.30327896 -2.55859375 3.76953125 C-0.92943284 2.07185494 -0.92943284 2.07185494 0 0 Z " fill="#B9CE5C" transform="translate(186,267)"/>
<path d="M0 0 C0.66 0.66 1.32 1.32 2 2 C-0.31 5.63 -2.62 9.26 -5 13 C-5.99 12.67 -6.98 12.34 -8 12 C-5.36 8.04 -2.72 4.08 0 0 Z " fill="#97A005" transform="translate(173,148)"/>
<path d="M0 0 C0.99 0.33 1.98 0.66 3 1 C0.03 3.97 -2.94 6.94 -6 10 C-6.33 9.01 -6.66 8.02 -7 7 C-4.66666667 4.66666667 -2.33333333 2.33333333 0 0 Z " fill="#C7E29F" transform="translate(328,350)"/>
<path d="M0 0 C0.66 0.33 1.32 0.66 2 1 C0.38113585 2.67262717 -1.2452729 4.33795537 -2.875 6 C-3.77992187 6.928125 -4.68484375 7.85625 -5.6171875 8.8125 C-8 11 -8 11 -10 11 C-8.85455923 7.56367769 -7.7288492 6.66528415 -5 4.375 C-4.278125 3.76398438 -3.55625 3.15296875 -2.8125 2.5234375 C-2.214375 2.02070313 -1.61625 1.51796875 -1 1 C-0.67 0.67 -0.34 0.34 0 0 Z " fill="#969D07" transform="translate(119,233)"/>
<path d="M0 0 C1 3 1 3 -0.21484375 5.48046875 C-0.78332031 6.37378906 -1.35179687 7.26710937 -1.9375 8.1875 C-2.50339844 9.08855469 -3.06929688 9.98960937 -3.65234375 10.91796875 C-4.09707031 11.60503906 -4.54179687 12.29210937 -5 13 C-5.66 12.34 -6.32 11.68 -7 11 C-4.69 7.37 -2.38 3.74 0 0 Z " fill="#B5CC8D" transform="translate(454,164)"/>
<path d="M0 0 C4.17882671 2.56428003 7.12505529 5.01930733 10 9 C5.57238086 7.60846256 3.0443745 5.47928514 0 2 C0 1.34 0 0.68 0 0 Z " fill="#BCCB68" transform="translate(128,377)"/>
<path d="M0 0 C0 0.66 0 1.32 0 2 C-4.95 3.485 -4.95 3.485 -10 5 C-10.33 4.34 -10.66 3.68 -11 3 C-9.54293274 2.49632243 -8.08429904 1.99717444 -6.625 1.5 C-5.81289063 1.2215625 -5.00078125 0.943125 -4.1640625 0.65625 C-2 0 -2 0 0 0 Z " fill="#C4D5AD" transform="translate(287,412)"/>
<path d="M0 0 C0.33 0.99 0.66 1.98 1 3 C-0.8125 5.6875 -0.8125 5.6875 -3 8 C-3.66 8 -4.32 8 -5 8 C-5 7.34 -5 6.68 -5 6 C-4.34 6 -3.68 6 -3 6 C-2.690625 5.195625 -2.38125 4.39125 -2.0625 3.5625 C-1 1 -1 1 0 0 Z " fill="#C7D6AF" transform="translate(355,275)"/>
</svg>
